<?xml version="1.0" encoding="utf-8"?>
<!-- Generator: Adobe Illustrator 21.1.0, SVG Export Plug-In . SVG Version: 6.00 Build 0)  -->
<svg version="1.1" id="Layer_1" xmlns="http://www.w3.org/2000/svg" xmlns:xlink="http://www.w3.org/1999/xlink" x="0px" y="0px"
	 viewBox="0 0 24 24" style="enable-background:new 0 0 24 24;" xml:space="preserve">
<path d="M20.1,2H3.8C2.8,2,2,2.9,2,3.9v16.3c0,1,0.8,1.8,1.8,1.8h16.3c1,0,1.8-0.8,1.8-1.8V3.9C22,2.9,21.1,2,20.1,2z M7.8,18.7H4.5
	V9.5h3.3V18.7z M6.2,8.5L6.2,8.5c-1,0-1.7-0.7-1.7-1.5c0-0.9,0.7-1.6,1.7-1.6S7.8,6,7.8,6.9C7.8,7.8,7.2,8.5,6.2,8.5z M19.5,18.7
	h-3.3v-5c0-1.3-0.9-1.7-1.2-1.7c-0.2,0-1.3,0.2-1.3,1.7c0,0.2,0,5,0,5h-3.3V9.5h3.3v1.3c0.5-0.7,1.3-1.3,2.9-1.3s2.9,1.2,2.9,4.2
	V18.7z"/>
</svg>
