<?xml version="1.0" encoding="utf-8"?>
<!-- Generator: Adobe Illustrator 21.1.0, SVG Export Plug-In . SVG Version: 6.00 Build 0)  -->
<svg version="1.1" id="Layer_1" xmlns="http://www.w3.org/2000/svg" xmlns:xlink="http://www.w3.org/1999/xlink" x="0px" y="0px"
	 viewBox="0 0 829.9 829.8" style="enable-background:new 0 0 829.9 829.8;" xml:space="preserve">
<style type="text/css">
	.st0{stroke:#000000;stroke-width:11;stroke-miterlimit:10;}
</style>
<path class="st0" d="M811,18.9H18.9v792H811V18.9z M72,782.8l458.7-458.5l67.9,67.9L208.1,782.8H72z M782.8,782.8h-529l367.6-367.6
	l161.4,161.4V782.8z M782.8,530.5l-252-252.3L47,762.1V47h735.8V530.5L782.8,530.5z"/>
<path class="st0" d="M318.8,340c61.6,0,111.9-50.2,111.9-111.9s-50.2-111.9-111.9-111.9s-111.9,50.2-111.9,111.9S257,340,318.8,340z
	 M318.8,145.3c45.7,0,82.8,37.2,82.8,82.8S364.5,311,318.8,311S236,273.8,236,228.1S273.1,145.3,318.8,145.3z"/>
</svg>
